<svg xmlns="http://www.w3.org/2000/svg" viewBox="0 0 1180 320" role="img" aria-label="1SCHED logo">
  <defs>
    <linearGradient id="ringFill" x1="0" x2="1">
      <stop offset="0%" stop-color="#cfe7e0"/>
      <stop offset="100%" stop-color="#b5d8d0"/>
    </linearGradient>
  </defs>

  <g transform="translate(10 20)">
    <circle cx="140" cy="140" r="128" fill="none" stroke="#d7edf5" stroke-width="18"/>
    <circle cx="140" cy="140" r="110" fill="url(#ringFill)"/>

    <g stroke="#eaf9f4" stroke-width="10" stroke-linecap="round" stroke-linejoin="round">
      <g transform="translate(68 60)">
        <rect x="0" y="0" width="58" height="58" rx="9" fill="none" stroke="#d7edf5" stroke-width="8"/>
        <path d="M0 22H58M16 0V18M42 0V18"/>
      </g>
      <g transform="translate(152 64)">
        <rect x="0" y="0" width="58" height="58" rx="9" fill="none" stroke="#d7edf5" stroke-width="8"/>
        <path d="M0 22H58M16 0V18M42 0V18"/>
      </g>
      <g transform="translate(130 138)">
        <rect x="0" y="0" width="58" height="58" rx="9" fill="none" stroke="#d7edf5" stroke-width="8"/>
        <path d="M0 22H58M16 0V18M42 0V18"/>
      </g>
      <g transform="translate(56 138)">
        <rect x="0" y="0" width="58" height="58" rx="9" fill="none" stroke="#d7edf5" stroke-width="8"/>
        <path d="M0 22H58M16 0V18M42 0V18"/>
      </g>
      <g transform="translate(204 138)">
        <rect x="0" y="0" width="58" height="58" rx="9" fill="none" stroke="#d7edf5" stroke-width="8"/>
        <path d="M0 22H58M16 0V18M42 0V18"/>
      </g>
    </g>

    <g fill="none" stroke="#d7edf5" stroke-width="10" stroke-linecap="round">
      <path d="M140 60 L140 88"/>
      <path d="M82 140 L110 140"/>
      <path d="M170 140 L198 140"/>
      <path d="M140 220 L140 192"/>
      <path d="M94 94 L112 112"/>
      <path d="M186 94 L168 112"/>
      <path d="M94 186 L112 168"/>
      <path d="M186 186 L168 168"/>
    </g>
  </g>

  <g transform="translate(300 0)">
    <text x="0" y="190" font-size="220" font-family="Segoe UI, Arial, sans-serif" font-weight="800" fill="#d5f0eb" letter-spacing="-8">1SCHED</text>
  </g>
</svg>
